<svg width="148" height="19" viewBox="0 0 148 19" fill="none" xmlns="http://www.w3.org/2000/svg">
<path d="M9.24139 7.77441C9.24139 8.25749 9.15936 8.71322 8.9953 9.1416C8.83124 9.56543 8.58059 9.93685 8.24335 10.2559C7.91066 10.5749 7.48684 10.8278 6.97186 11.0146C6.45689 11.1969 5.85077 11.2881 5.1535 11.2881H3.66327L2.88397 15H1.70819L3.77948 5.19727H6.31561C6.8397 5.19727 7.28632 5.27018 7.65546 5.41602C8.02915 5.55729 8.33221 5.7487 8.56464 5.99023C8.80162 6.22721 8.97251 6.50065 9.07733 6.81055C9.18671 7.12044 9.24139 7.44173 9.24139 7.77441ZM8.03143 7.87695C8.03143 7.63086 7.98814 7.40755 7.90155 7.20703C7.81952 7.00195 7.69647 6.82878 7.53241 6.6875C7.36835 6.54167 7.16327 6.43001 6.91718 6.35254C6.67564 6.27507 6.39537 6.23633 6.07635 6.23633H4.74335L3.88885 10.2559H5.26288C5.74595 10.2559 6.16066 10.1966 6.50702 10.0781C6.85793 9.95508 7.14504 9.78874 7.36835 9.5791C7.59621 9.36491 7.76255 9.11426 7.86737 8.82715C7.97675 8.53548 8.03143 8.21875 8.03143 7.87695ZM16.2141 10.5908C16.2141 11.2106 16.1252 11.7985 15.9474 12.3545C15.7743 12.9105 15.5213 13.3981 15.1887 13.8174C14.8605 14.2321 14.4595 14.5625 13.9855 14.8086C13.5161 15.0501 12.9852 15.1709 12.3928 15.1709C11.9917 15.1709 11.6294 15.1071 11.3058 14.9795C10.9868 14.8519 10.7134 14.6696 10.4855 14.4326C10.2622 14.1911 10.0891 13.9017 9.966 13.5645C9.84751 13.2227 9.78827 12.8376 9.78827 12.4092C9.78827 11.7666 9.87941 11.1673 10.0617 10.6113C10.2486 10.0508 10.5083 9.56543 10.841 9.15527C11.1782 8.74056 11.5793 8.41699 12.0441 8.18457C12.5135 7.94759 13.0308 7.8291 13.5959 7.8291C13.9924 7.8291 14.3501 7.8929 14.6691 8.02051C14.9927 8.14811 15.2684 8.33268 15.4963 8.57422C15.7241 8.8112 15.8996 9.10059 16.0226 9.44238C16.1502 9.77962 16.2141 10.1624 16.2141 10.5908ZM15.0656 10.6455C15.0656 10.3493 15.0292 10.0872 14.9562 9.85938C14.8833 9.62695 14.7808 9.43327 14.6486 9.27832C14.5165 9.11882 14.357 8.99805 14.1701 8.91602C13.9833 8.82943 13.7736 8.78613 13.5412 8.78613C13.1402 8.78613 12.7779 8.88867 12.4543 9.09375C12.1307 9.29883 11.8573 9.56999 11.634 9.90723C11.4107 10.2399 11.2375 10.6204 11.1144 11.0488C10.996 11.4727 10.9367 11.9079 10.9367 12.3545C10.9367 12.637 10.9709 12.8945 11.0392 13.127C11.1122 13.3548 11.2124 13.5508 11.34 13.7148C11.4722 13.8743 11.6317 13.9974 11.8185 14.084C12.0099 14.1706 12.2241 14.2139 12.4611 14.2139C12.8667 14.2139 13.2313 14.1136 13.5549 13.9131C13.8784 13.708 14.1519 13.4391 14.3752 13.1064C14.5985 12.7692 14.7694 12.3864 14.8879 11.958C15.0064 11.5296 15.0656 11.0921 15.0656 10.6455ZM23.7473 15H22.6398L22.2365 10.0303C22.232 9.98926 22.2297 9.93685 22.2297 9.87305C22.2297 9.80924 22.2297 9.74544 22.2297 9.68164C22.2342 9.61784 22.2388 9.55632 22.2433 9.49707C22.2525 9.43327 22.2593 9.38314 22.2639 9.34668H22.2365C22.2228 9.39225 22.2046 9.44466 22.1818 9.50391C22.159 9.56315 22.134 9.62695 22.1066 9.69531C22.0793 9.75911 22.0497 9.82292 22.0178 9.88672C21.9904 9.94596 21.9654 9.99837 21.9426 10.0439L19.3244 15H18.217L17.6017 8H18.6818L19.0168 13.2363C19.0259 13.3366 19.0259 13.446 19.0168 13.5645C19.0122 13.6784 19.0031 13.7878 18.9894 13.8926H19.0305C19.0669 13.7878 19.1079 13.6715 19.1535 13.5439C19.2036 13.4118 19.2515 13.3001 19.2971 13.209L22.0246 8H23.0226L23.4123 13.25C23.4214 13.3548 23.4191 13.4688 23.4055 13.5918C23.3963 13.7103 23.3849 13.8151 23.3713 13.9062H23.426C23.4351 13.8607 23.4488 13.8105 23.467 13.7559C23.4898 13.6966 23.5126 13.6374 23.5353 13.5781C23.5581 13.5143 23.5809 13.4528 23.6037 13.3936C23.631 13.3343 23.6561 13.2819 23.6789 13.2363L26.1945 8H27.3293L23.7473 15ZM33.3859 9.64062C33.3859 10.0098 33.3039 10.347 33.1398 10.6523C32.9758 10.9531 32.7046 11.2129 32.3264 11.4316C31.9481 11.6458 31.4491 11.8122 30.8293 11.9307C30.2095 12.0492 29.4439 12.1107 28.5324 12.1152C28.5233 12.1654 28.5187 12.2178 28.5187 12.2725C28.5187 12.3226 28.5187 12.3682 28.5187 12.4092C28.5187 12.6553 28.5529 12.8877 28.6213 13.1064C28.6896 13.3252 28.7945 13.5166 28.9357 13.6807C29.0816 13.8447 29.2661 13.9746 29.4894 14.0703C29.7173 14.166 29.9862 14.2139 30.2961 14.2139C30.6105 14.2139 30.9546 14.1546 31.3283 14.0361C31.7066 13.9131 32.0666 13.7399 32.4084 13.5166L32.1965 14.624C31.9458 14.7699 31.6473 14.8975 31.301 15.0068C30.9546 15.1162 30.5672 15.1709 30.1389 15.1709C29.6239 15.1709 29.1887 15.0911 28.8332 14.9316C28.4823 14.7721 28.1974 14.5602 27.9787 14.2959C27.7645 14.027 27.6096 13.7194 27.5139 13.373C27.4182 13.0221 27.3703 12.6553 27.3703 12.2725C27.3703 11.8623 27.4159 11.4681 27.507 11.0898C27.5982 10.707 27.7258 10.3516 27.8898 10.0234C28.0585 9.69531 28.259 9.39681 28.4914 9.12793C28.7238 8.85449 28.9813 8.62207 29.2639 8.43066C29.5464 8.23926 29.8495 8.09115 30.173 7.98633C30.4966 7.88151 30.8316 7.8291 31.1779 7.8291C31.5379 7.8291 31.8547 7.87695 32.1281 7.97266C32.4061 8.06836 32.6363 8.20052 32.8185 8.36914C33.0054 8.5332 33.1467 8.72461 33.2424 8.94336C33.3381 9.16211 33.3859 9.39453 33.3859 9.64062ZM32.2443 9.69531C32.2443 9.4082 32.1372 9.1849 31.923 9.02539C31.7134 8.86589 31.4331 8.78613 31.0822 8.78613C30.8042 8.78613 30.5353 8.84766 30.2756 8.9707C30.0158 9.08919 29.7766 9.25553 29.5578 9.46973C29.3391 9.67936 29.1499 9.93229 28.9904 10.2285C28.8309 10.5202 28.7147 10.8369 28.6418 11.1787C29.2935 11.1787 29.8472 11.1468 30.3029 11.083C30.7586 11.0146 31.1301 10.9167 31.4172 10.7891C31.7043 10.6615 31.9139 10.5065 32.0461 10.3242C32.1782 10.1374 32.2443 9.92773 32.2443 9.69531ZM38.8957 9.18945H38.8683C38.7772 9.13477 38.6564 9.08236 38.506 9.03223C38.3602 8.97754 38.2144 8.9502 38.0685 8.9502C37.8042 8.9502 37.5513 9.03678 37.3098 9.20996C37.0682 9.37858 36.8472 9.60417 36.6467 9.88672C36.4507 10.1647 36.2775 10.4837 36.1271 10.8438C35.9813 11.2038 35.8674 11.5729 35.7853 11.9512L35.1291 15H34.008L34.9924 10.3516C35.0334 10.1602 35.0744 9.95964 35.1154 9.75C35.1564 9.54036 35.1929 9.33073 35.2248 9.12109C35.2613 8.91146 35.2932 8.71094 35.3205 8.51953C35.3478 8.32812 35.3683 8.15495 35.382 8H36.4894C36.4758 8.13672 36.4598 8.28255 36.4416 8.4375C36.4234 8.58789 36.4051 8.736 36.3869 8.88184C36.3687 9.02311 36.3504 9.15299 36.3322 9.27148C36.314 9.38542 36.3003 9.47428 36.2912 9.53809H36.3185C36.4644 9.27832 36.6125 9.04362 36.7629 8.83398C36.9133 8.62435 37.0705 8.44661 37.2346 8.30078C37.4032 8.15039 37.5809 8.03418 37.7678 7.95215C37.9546 7.87012 38.1574 7.8291 38.3762 7.8291C38.5038 7.8291 38.6291 7.84277 38.7521 7.87012C38.8797 7.8929 38.9937 7.91797 39.0939 7.94531L38.8957 9.18945ZM45.1848 9.64062C45.1848 10.0098 45.1027 10.347 44.9387 10.6523C44.7746 10.9531 44.5034 11.2129 44.1252 11.4316C43.7469 11.6458 43.2479 11.8122 42.6281 11.9307C42.0083 12.0492 41.2427 12.1107 40.3312 12.1152C40.3221 12.1654 40.3176 12.2178 40.3176 12.2725C40.3176 12.3226 40.3176 12.3682 40.3176 12.4092C40.3176 12.6553 40.3517 12.8877 40.4201 13.1064C40.4885 13.3252 40.5933 13.5166 40.7346 13.6807C40.8804 13.8447 41.065 13.9746 41.2883 14.0703C41.5161 14.166 41.785 14.2139 42.0949 14.2139C42.4094 14.2139 42.7534 14.1546 43.1271 14.0361C43.5054 13.9131 43.8654 13.7399 44.2072 13.5166L43.9953 14.624C43.7446 14.7699 43.4461 14.8975 43.0998 15.0068C42.7534 15.1162 42.3661 15.1709 41.9377 15.1709C41.4227 15.1709 40.9875 15.0911 40.632 14.9316C40.2811 14.7721 39.9963 14.5602 39.7775 14.2959C39.5633 14.027 39.4084 13.7194 39.3127 13.373C39.217 13.0221 39.1691 12.6553 39.1691 12.2725C39.1691 11.8623 39.2147 11.4681 39.3058 11.0898C39.397 10.707 39.5246 10.3516 39.6887 10.0234C39.8573 9.69531 40.0578 9.39681 40.2902 9.12793C40.5226 8.85449 40.7801 8.62207 41.0627 8.43066C41.3452 8.23926 41.6483 8.09115 41.9719 7.98633C42.2954 7.88151 42.6304 7.8291 42.9767 7.8291C43.3368 7.8291 43.6535 7.87695 43.9269 7.97266C44.2049 8.06836 44.4351 8.20052 44.6174 8.36914C44.8042 8.5332 44.9455 8.72461 45.0412 8.94336C45.1369 9.16211 45.1848 9.39453 45.1848 9.64062ZM44.0432 9.69531C44.0432 9.4082 43.9361 9.1849 43.7219 9.02539C43.5122 8.86589 43.232 8.78613 42.881 8.78613C42.603 8.78613 42.3342 8.84766 42.0744 8.9707C41.8146 9.08919 41.5754 9.25553 41.3566 9.46973C41.1379 9.67936 40.9488 9.93229 40.7892 10.2285C40.6297 10.5202 40.5135 10.8369 40.4406 11.1787C41.0923 11.1787 41.646 11.1468 42.1017 11.083C42.5575 11.0146 42.9289 10.9167 43.216 10.7891C43.5031 10.6615 43.7127 10.5065 43.8449 10.3242C43.9771 10.1374 44.0432 9.92773 44.0432 9.69531ZM51.6174 12.8467C51.5855 12.9925 51.5536 13.168 51.5217 13.373C51.4943 13.5781 51.4693 13.7855 51.4465 13.9951C51.4237 14.2002 51.4032 14.3939 51.3849 14.5762C51.3713 14.7585 51.3644 14.8997 51.3644 15H50.2023C50.2023 14.9225 50.2069 14.82 50.216 14.6924C50.2297 14.5602 50.2433 14.4235 50.257 14.2822C50.2752 14.141 50.2935 14.0065 50.3117 13.8789C50.3299 13.7467 50.3459 13.6396 50.3596 13.5576H50.3322C50.1682 13.8219 50.0041 14.0566 49.84 14.2617C49.676 14.4622 49.5028 14.6309 49.3205 14.7676C49.1382 14.8997 48.9445 15 48.7394 15.0684C48.5344 15.1367 48.3088 15.1709 48.0627 15.1709C47.7437 15.1709 47.4566 15.1139 47.2014 15C46.9461 14.8861 46.7274 14.7197 46.5451 14.501C46.3674 14.2777 46.2307 14.0042 46.1349 13.6807C46.0392 13.3525 45.9914 12.9766 45.9914 12.5527C45.9914 12.2155 46.0256 11.8646 46.0939 11.5C46.1668 11.1354 46.2762 10.7777 46.4221 10.4268C46.5724 10.0758 46.7616 9.74316 46.9894 9.42871C47.2173 9.11426 47.4885 8.83854 47.8029 8.60156C48.1174 8.36458 48.4774 8.17773 48.883 8.04102C49.2886 7.89974 49.742 7.8291 50.2433 7.8291C50.4986 7.8291 50.7355 7.84733 50.9543 7.88379C51.173 7.91569 51.3622 7.94987 51.5217 7.98633L52.2326 4.63672H53.34L51.6174 12.8467ZM51.3234 8.9502C51.1502 8.90007 50.968 8.86133 50.7766 8.83398C50.5897 8.80208 50.3892 8.78613 50.175 8.78613C49.7785 8.78613 49.4276 8.84766 49.1223 8.9707C48.8215 9.09375 48.5571 9.25781 48.3293 9.46289C48.106 9.66797 47.9168 9.90267 47.7619 10.167C47.6115 10.4268 47.4885 10.6956 47.3928 10.9736C47.3016 11.2471 47.2355 11.5182 47.1945 11.7871C47.1581 12.0514 47.1398 12.2907 47.1398 12.5049C47.1398 12.7601 47.1603 12.9925 47.2014 13.2021C47.2469 13.4118 47.3176 13.5918 47.4133 13.7422C47.5135 13.8926 47.6411 14.0088 47.7961 14.0908C47.951 14.1729 48.1379 14.2139 48.3566 14.2139C48.5845 14.2139 48.7964 14.166 48.9924 14.0703C49.1929 13.9746 49.3797 13.8447 49.5529 13.6807C49.7261 13.5166 49.8833 13.3275 50.0246 13.1133C50.1659 12.8991 50.2935 12.6712 50.4074 12.4297C50.5213 12.1882 50.617 11.9443 50.6945 11.6982C50.7766 11.4476 50.8426 11.2083 50.8928 10.9805L51.3234 8.9502ZM63.9562 10.4473C63.9562 10.7572 63.9243 11.0898 63.8605 11.4453C63.7967 11.7962 63.6942 12.1471 63.5529 12.498C63.4116 12.8444 63.2316 13.1794 63.0129 13.5029C62.7941 13.8265 62.5298 14.1113 62.2199 14.3574C61.9146 14.6035 61.5591 14.8018 61.1535 14.9521C60.7525 15.098 60.2967 15.1709 59.7863 15.1709C59.5767 15.1709 59.3602 15.1549 59.1369 15.123C58.9136 15.0957 58.6948 15.0547 58.4807 15C58.2665 14.9453 58.0614 14.8792 57.8654 14.8018C57.6695 14.7243 57.4917 14.6354 57.3322 14.5352L59.4377 4.63672H60.5724L59.8683 7.98633C59.8182 8.20964 59.7658 8.44434 59.7111 8.69043C59.661 8.93652 59.6109 9.15527 59.5607 9.34668H59.5744C59.7202 9.11426 59.8752 8.90462 60.0392 8.71777C60.2033 8.53092 60.3788 8.37142 60.5656 8.23926C60.757 8.1071 60.9598 8.00684 61.174 7.93848C61.3928 7.86556 61.6297 7.8291 61.8849 7.8291C62.5503 7.8291 63.0607 8.05697 63.4162 8.5127C63.7762 8.96842 63.9562 9.61328 63.9562 10.4473ZM62.8078 10.4746C62.8078 10.2148 62.7827 9.98014 62.7326 9.77051C62.687 9.56087 62.6118 9.38314 62.507 9.2373C62.4068 9.09147 62.2769 8.97982 62.1174 8.90234C61.9579 8.82487 61.7642 8.78613 61.5363 8.78613C61.2492 8.78613 60.9735 8.87044 60.7092 9.03906C60.4448 9.20768 60.2033 9.43099 59.9846 9.70898C59.7658 9.98698 59.5767 10.3014 59.4172 10.6523C59.2577 11.0033 59.1415 11.361 59.0685 11.7256L58.6105 13.9062C58.7655 13.9928 58.9592 14.0658 59.1916 14.125C59.4286 14.1842 59.6724 14.2139 59.923 14.2139C60.2466 14.2139 60.5428 14.1615 60.8117 14.0566C61.0806 13.9473 61.3221 13.7992 61.5363 13.6123C61.7505 13.4255 61.9374 13.209 62.0969 12.9629C62.2564 12.7168 62.3885 12.457 62.4933 12.1836C62.5982 11.9056 62.6756 11.6208 62.7258 11.3291C62.7805 11.0329 62.8078 10.748 62.8078 10.4746ZM66.9982 16.1621C66.7886 16.5039 66.5767 16.8047 66.3625 17.0645C66.1483 17.3288 65.9227 17.5521 65.6857 17.7344C65.4533 17.9167 65.2027 18.0534 64.9338 18.1445C64.6695 18.2402 64.3778 18.2881 64.0588 18.2881C63.954 18.2881 63.8377 18.2767 63.7101 18.2539C63.578 18.2357 63.4732 18.2152 63.3957 18.1924L63.6076 17.2012C63.676 17.2376 63.7648 17.2673 63.8742 17.29C63.9836 17.3128 64.0907 17.3242 64.1955 17.3242C64.5099 17.3242 64.7925 17.2376 65.0432 17.0645C65.2984 16.8913 65.5376 16.627 65.7609 16.2715L66.6017 14.9727L65.3303 8H66.4924L67.3058 13.373C67.3195 13.4733 67.3264 13.5713 67.3264 13.667C67.3309 13.7581 67.3286 13.8379 67.3195 13.9062H67.3605C67.3833 13.8516 67.4175 13.7741 67.4631 13.6738C67.5132 13.5736 67.5679 13.4779 67.6271 13.3867L70.7307 8H71.968L66.9982 16.1621Z" fill="#677C96"/>
<path d="M100.385 6.51501V8.52776H97.9389V15.5724H95.4294V8.52776H93.009V6.51501H100.385Z" fill="#677C96"/>
<path d="M104.792 8.72088C105.213 8.4661 105.671 8.33871 106.143 8.33871V11.0266H105.417C104.856 11.0266 104.436 11.1413 104.156 11.3578C103.875 11.5744 103.735 11.9566 103.735 12.4916V15.5872H101.213V8.40241H103.735V9.74C104.015 9.31961 104.359 8.97566 104.792 8.72088Z" fill="#677C96"/>
<path d="M110.945 8.62408C111.315 8.84064 111.595 9.14637 111.773 9.52854V8.39478H114.283V15.5668H111.773V14.433C111.595 14.8152 111.315 15.1209 110.945 15.3375C110.576 15.554 110.143 15.6687 109.633 15.6687C109.06 15.6687 108.55 15.5158 108.092 15.2228C107.633 14.9298 107.264 14.4967 107.009 13.9489C106.741 13.3884 106.614 12.7387 106.614 11.9872C106.614 11.2356 106.741 10.5859 107.009 10.0254C107.276 9.47758 107.633 9.04446 108.092 8.75147C108.55 8.45847 109.073 8.3056 109.633 8.3056C110.143 8.3056 110.576 8.40751 110.945 8.62408ZM109.518 10.8916C109.276 11.1464 109.149 11.5158 109.149 11.9744C109.149 12.4458 109.276 12.8024 109.518 13.07C109.761 13.3247 110.079 13.4649 110.474 13.4649C110.843 13.4649 111.162 13.3375 111.404 13.07C111.646 12.8024 111.773 12.4458 111.773 11.9872C111.773 11.5413 111.646 11.1719 111.404 10.9171C111.162 10.6496 110.843 10.5222 110.474 10.5222C110.079 10.4967 109.761 10.6241 109.518 10.8916Z" fill="#677C96"/>
<path d="M122.398 9.154C122.869 9.70178 123.098 10.4534 123.098 11.3961V15.5617H120.602V11.7145C120.602 11.2941 120.487 10.9757 120.27 10.7336C120.054 10.5043 119.761 10.3769 119.391 10.3769C119.022 10.3769 118.716 10.5043 118.5 10.7464C118.283 10.9884 118.168 11.3196 118.168 11.7527V15.5617H115.646V8.40241H118.168V9.59987C118.372 9.2177 118.665 8.91197 119.06 8.68266C119.455 8.45336 119.914 8.33871 120.436 8.33871C121.277 8.33871 121.926 8.60623 122.398 9.154Z" fill="#677C96"/>
<path d="M129.417 8.99936C129.977 9.45796 130.334 10.0694 130.474 10.821H128.118C128.054 10.5662 127.939 10.3752 127.748 10.2478C127.57 10.1204 127.34 10.0567 127.073 10.0567C126.882 10.0567 126.742 10.0949 126.64 10.1841C126.538 10.2605 126.487 10.3752 126.487 10.528C126.487 10.7064 126.589 10.8465 126.805 10.9357C127.009 11.0248 127.353 11.1268 127.837 11.2414C128.385 11.3561 128.844 11.4834 129.213 11.6236C129.57 11.7637 129.888 11.9803 130.156 12.286C130.423 12.5917 130.563 13.0121 130.563 13.5217C130.563 13.9421 130.449 14.3115 130.219 14.63C129.99 14.9484 129.659 15.2032 129.213 15.3943C128.78 15.5726 128.258 15.6746 127.659 15.6746C126.653 15.6746 125.85 15.458 125.251 15.0249C124.653 14.5917 124.296 13.9675 124.168 13.165H126.589C126.627 13.4325 126.742 13.6236 126.933 13.751C127.124 13.8784 127.366 13.9421 127.659 13.9421C127.85 13.9421 128.003 13.9038 128.105 13.8147C128.207 13.7255 128.258 13.6236 128.258 13.4835C128.258 13.2796 128.143 13.1268 127.926 13.0376C127.71 12.9484 127.366 12.8465 126.882 12.7573C126.334 12.6427 125.888 12.528 125.544 12.3879C125.2 12.2605 124.895 12.044 124.627 11.751C124.372 11.458 124.232 11.0503 124.232 10.528C124.232 9.87834 124.487 9.35605 124.984 8.9484C125.481 8.54076 126.207 8.33694 127.137 8.33694C128.105 8.31146 128.856 8.54076 129.417 8.99936Z" fill="#677C96"/>
<path d="M137.289 9.07877C137.914 9.58832 138.321 10.3144 138.474 11.2189H135.812C135.748 10.9769 135.646 10.7858 135.48 10.6457C135.328 10.5183 135.124 10.4418 134.869 10.4418C134.563 10.4418 134.308 10.5692 134.117 10.8367C133.926 11.0915 133.824 11.4737 133.824 11.9705C133.824 12.4673 133.926 12.8495 134.117 13.1043C134.308 13.359 134.563 13.4864 134.869 13.4864C135.111 13.4864 135.315 13.4227 135.48 13.2826C135.633 13.1552 135.748 12.9641 135.812 12.7094H138.487C138.321 13.6266 137.926 14.3399 137.302 14.8622C136.665 15.3845 135.888 15.6393 134.958 15.6393C134.245 15.6393 133.608 15.4864 133.06 15.1934C132.512 14.9005 132.079 14.4673 131.773 13.9196C131.468 13.359 131.315 12.7094 131.315 11.9578C131.315 11.2062 131.468 10.5565 131.773 9.99597C132.079 9.44819 132.512 9.01507 133.06 8.72208C133.608 8.42908 134.245 8.27621 134.958 8.27621C135.888 8.31443 136.665 8.56921 137.289 9.07877Z" fill="#A2B3C6"/>
<path d="M141.531 8.40121L143.06 12.414L144.474 8.40121H147.264L142.728 19H139.964L141.709 15.2675L138.716 8.40121H141.531Z" fill="#A2B3C6"/>
<path d="M85.1888 12.4563C85.3671 12.278 85.5327 12.0742 85.6729 11.8449C86.0423 11.2589 86.2461 10.5837 86.2461 9.89581C86.2461 8.94039 85.8639 8.01045 85.1888 7.33529L81.9021 4.06139C81.227 3.38623 80.3098 3.00406 79.3544 3.00406C77.3544 3.00406 75.7365 4.6219 75.7365 6.62191C75.7365 7.57733 76.1187 8.49453 76.7938 9.16969L79.5072 11.8831C79.5582 11.934 79.6219 11.9595 79.6983 11.9595C79.8384 11.9595 79.9531 11.8449 79.9531 11.7047V11.6028C79.9531 11.0423 80.055 10.4691 80.2716 9.94677C80.3098 9.84486 80.2843 9.74294 80.2206 9.66651L78.2588 7.71746C77.6473 7.10599 77.6473 6.12509 78.2588 5.52636C78.8703 4.92763 79.8512 4.9149 80.4499 5.52636L83.7493 8.82574C84.348 9.42447 84.348 10.4054 83.7493 11.0168C83.3671 11.4245 83.3671 12.0614 83.7493 12.4691C83.9276 12.6474 84.1569 12.7493 84.399 12.7748C84.692 12.7748 84.985 12.6729 85.1888 12.4563Z" fill="#677C96"/>
<path d="M90.1691 17.4396C91.5831 16.0256 91.5831 13.7453 90.1691 12.3313L87.4684 9.6179C87.392 9.54147 87.2774 9.51599 87.1882 9.56694C87.0863 9.60516 87.0226 9.70707 87.0353 9.80898V9.89816C87.0353 10.4587 86.9207 11.0192 86.7168 11.5542C86.6786 11.6561 86.7041 11.758 86.7678 11.8345L88.7041 13.7835C89.3156 14.395 89.3156 15.3759 88.7041 15.9746C88.0926 16.5861 87.1117 16.5861 86.513 15.9746L84.0926 13.5542L84.0671 13.5287L83.2264 12.688C82.6277 12.0892 82.6277 11.1084 83.2264 10.4969C83.6085 10.0892 83.6085 9.45229 83.2264 9.04465C83.048 8.8663 82.8187 8.76439 82.564 8.73892C82.271 8.72618 81.978 8.82809 81.7741 9.04465C81.4684 9.33764 81.2264 9.69433 81.048 10.0765C81.0225 10.1275 80.9971 10.1912 80.9843 10.2421C80.9589 10.2931 80.9461 10.3568 80.9206 10.4077C80.8952 10.4587 80.8824 10.5224 80.8697 10.5733L80.8315 10.7262C80.806 10.8281 80.7805 10.93 80.7678 11.0447C80.755 11.172 80.7423 11.2994 80.7296 11.4268V11.6052V11.6179L80.7423 11.7708C80.7423 11.8217 80.755 11.8854 80.755 11.9491V12.0383L80.7805 12.2166L80.7932 12.2931L80.8187 12.4459V12.4714C80.9843 13.1084 81.3028 13.6816 81.7741 14.153L85.0608 17.4396C86.4748 18.8536 88.7551 18.8536 90.1691 17.4396Z" fill="#A2B3C6"/>
<path d="M85.1888 9.04848C85.0104 8.87014 84.8066 8.70453 84.5773 8.5644C83.9913 8.19497 83.3162 7.99115 82.6283 7.99115C81.6728 7.99115 80.7429 8.37332 80.0677 9.04848L76.7938 12.3351C76.1187 13.0103 75.7365 13.9275 75.7365 14.8829C75.7365 16.8829 77.3544 18.5008 79.3544 18.5008C80.3098 18.5008 81.227 18.1186 81.9021 17.4434L84.6155 14.73C84.6665 14.6791 84.692 14.6154 84.692 14.539C84.692 14.3988 84.5773 14.2842 84.4372 14.2842H84.3353C83.7748 14.2842 83.2015 14.1823 82.6792 13.9657C82.5773 13.9275 82.4754 13.953 82.399 14.0167L80.4499 15.9912C79.8384 16.6027 78.8575 16.6027 78.2588 15.9912C77.6473 15.3797 77.6473 14.3988 78.2588 13.8001L81.5582 10.5007C82.1569 9.90199 83.1378 9.90199 83.7493 10.5007C84.1569 10.8829 84.7939 10.8829 85.2015 10.5007C85.3799 10.3224 85.4818 10.0931 85.5073 9.85103C85.5073 9.5453 85.4053 9.26504 85.1888 9.04848Z" fill="#677C96"/>
<path d="M90.1706 4.06113C88.7565 2.64711 86.4763 2.64711 85.0622 4.06113L82.3489 6.77451C82.2724 6.85095 82.2469 6.9656 82.2979 7.05477C82.3361 7.15668 82.438 7.22038 82.5399 7.20764H82.6291C83.1896 7.20764 83.7501 7.32229 84.2852 7.52611C84.3871 7.56433 84.489 7.53885 84.5654 7.47515L86.5145 5.53884C87.126 4.92737 88.1068 4.92737 88.7056 5.53884C89.3043 6.15031 89.317 7.1312 88.7056 7.72993L86.2852 10.1503L86.2597 10.1758L85.4189 11.0166C84.8202 11.6153 83.8393 11.6153 83.2278 11.0166C82.8202 10.6344 82.1833 10.6344 81.7756 11.0166C81.5973 11.1822 81.4954 11.4242 81.4699 11.6663C81.4571 11.9593 81.559 12.2522 81.7756 12.4561C82.0686 12.7618 82.4253 13.0038 82.8075 13.1822C82.8584 13.2077 82.9221 13.2331 82.9731 13.2459C83.024 13.2586 83.0877 13.2841 83.1387 13.3096C83.1896 13.3351 83.2533 13.3478 83.3043 13.3605L83.4571 13.3987C83.5591 13.4242 83.661 13.4497 83.7756 13.4624C83.903 13.4752 84.0304 13.4879 84.1578 13.5007H84.3361H84.3489L84.5017 13.4879C84.5527 13.4879 84.6164 13.4752 84.6801 13.4752H84.7693L84.9476 13.4497L85.024 13.437L85.1769 13.4115H85.2024C85.8393 13.2459 86.4126 12.9274 86.8839 12.4561L90.1706 9.16943C91.5846 7.76815 91.5846 5.47514 90.1706 4.06113Z" fill="#A2B3C6"/>
</svg>
